<svg width="56" height="56" viewBox="0 0 56 56" fill="none" xmlns="http://www.w3.org/2000/svg">
<path d="M0 28C0 12.536 12.536 0 28 0C43.464 0 56 12.536 56 28C56 43.464 43.464 56 28 56C12.536 56 0 43.464 0 28Z" fill="#E0F2FE"/>
<path d="M14.875 14.875C15.9121 14.875 16.75 15.7129 16.75 16.75V36.4375C16.75 36.9531 17.1719 37.375 17.6875 37.375H41.125C42.1621 37.375 43 38.2129 43 39.25C43 40.2871 42.1621 41.125 41.125 41.125H17.6875C15.0977 41.125 13 39.0273 13 36.4375V16.75C13 15.7129 13.8379 14.875 14.875 14.875ZM20.5 20.5C20.5 19.4629 21.3379 18.625 22.375 18.625H33.625C34.6621 18.625 35.5 19.4629 35.5 20.5C35.5 21.5371 34.6621 22.375 33.625 22.375H22.375C21.3379 22.375 20.5 21.5371 20.5 20.5ZM22.375 24.25H29.875C30.9121 24.25 31.75 25.0879 31.75 26.125C31.75 27.1621 30.9121 28 29.875 28H22.375C21.3379 28 20.5 27.1621 20.5 26.125C20.5 25.0879 21.3379 24.25 22.375 24.25ZM22.375 29.875H37.375C38.4121 29.875 39.25 30.7129 39.25 31.75C39.25 32.7871 38.4121 33.625 37.375 33.625H22.375C21.3379 33.625 20.5 32.7871 20.5 31.75C20.5 30.7129 21.3379 29.875 22.375 29.875Z" fill="#0369A1"/>
</svg>
