<svg width="56" height="56" viewBox="0 0 56 56" fill="none" xmlns="http://www.w3.org/2000/svg">
<path d="M0 28C0 12.536 12.536 0 28 0C43.464 0 56 12.536 56 28C56 43.464 43.464 56 28 56C12.536 56 0 43.464 0 28Z" fill="#E0F2FE"/>
<g clip-path="url(#clip0_339_4156)">
<path d="M27.75 13C28.7871 13 29.625 13.8379 29.625 14.875V18.625H36.6562C38.9883 18.625 40.875 20.5117 40.875 22.8438V38.7812C40.875 41.1133 38.9883 43 36.6562 43H18.8438C16.5117 43 14.625 41.1133 14.625 38.7812V22.8438C14.625 20.5117 16.5117 18.625 18.8438 18.625H25.875V14.875C25.875 13.8379 26.7129 13 27.75 13ZM21.1875 35.5C20.6719 35.5 20.25 35.9219 20.25 36.4375C20.25 36.9531 20.6719 37.375 21.1875 37.375H23.0625C23.5781 37.375 24 36.9531 24 36.4375C24 35.9219 23.5781 35.5 23.0625 35.5H21.1875ZM26.8125 35.5C26.2969 35.5 25.875 35.9219 25.875 36.4375C25.875 36.9531 26.2969 37.375 26.8125 37.375H28.6875C29.2031 37.375 29.625 36.9531 29.625 36.4375C29.625 35.9219 29.2031 35.5 28.6875 35.5H26.8125ZM32.4375 35.5C31.9219 35.5 31.5 35.9219 31.5 36.4375C31.5 36.9531 31.9219 37.375 32.4375 37.375H34.3125C34.8281 37.375 35.25 36.9531 35.25 36.4375C35.25 35.9219 34.8281 35.5 34.3125 35.5H32.4375ZM24.4688 28C24.4688 27.3784 24.2218 26.7823 23.7823 26.3427C23.3427 25.9032 22.7466 25.6562 22.125 25.6562C21.5034 25.6562 20.9073 25.9032 20.4677 26.3427C20.0282 26.7823 19.7812 27.3784 19.7812 28C19.7812 28.6216 20.0282 29.2177 20.4677 29.6573C20.9073 30.0968 21.5034 30.3438 22.125 30.3438C22.7466 30.3438 23.3427 30.0968 23.7823 29.6573C24.2218 29.2177 24.4688 28.6216 24.4688 28ZM33.375 30.3438C33.9966 30.3438 34.5927 30.0968 35.0323 29.6573C35.4718 29.2177 35.7188 28.6216 35.7188 28C35.7188 27.3784 35.4718 26.7823 35.0323 26.3427C34.5927 25.9032 33.9966 25.6562 33.375 25.6562C32.7534 25.6562 32.1573 25.9032 31.7177 26.3427C31.2782 26.7823 31.0312 27.3784 31.0312 28C31.0312 28.6216 31.2782 29.2177 31.7177 29.6573C32.1573 30.0968 32.7534 30.3438 33.375 30.3438ZM11.8125 26.125H12.75V37.375H11.8125C10.2598 37.375 9 36.1152 9 34.5625V28.9375C9 27.3848 10.2598 26.125 11.8125 26.125ZM43.6875 26.125C45.2402 26.125 46.5 27.3848 46.5 28.9375V34.5625C46.5 36.1152 45.2402 37.375 43.6875 37.375H42.75V26.125H43.6875Z" fill="#0369A1"/>
</g>
<defs>
<clipPath id="clip0_339_4156">
<rect width="37.5" height="30" fill="white" transform="translate(9 13)"/>
</clipPath>
</defs>
</svg>
