<svg width="56" height="56" viewBox="0 0 56 56" fill="none" xmlns="http://www.w3.org/2000/svg">
<path d="M0 28C0 12.536 12.536 0 28 0C43.464 0 56 12.536 56 28C56 43.464 43.464 56 28 56C12.536 56 0 43.464 0 28Z" fill="#E0F2FE"/>
<g clip-path="url(#clip0_339_4145)">
<path d="M13.8262 40.1465C12.7305 39.0508 12.7305 37.2695 13.8262 36.168L36.168 13.8262C37.2637 12.7305 39.0449 12.7305 40.1465 13.8262L42.1738 15.8535C43.2695 16.9492 43.2695 18.7305 42.1738 19.832L19.8262 42.1738C18.7305 43.2695 16.9492 43.2695 15.8477 42.1738L13.8262 40.1465ZM33.3672 23.9922L39.5195 17.8398L38.1602 16.4746L32.0078 22.627L33.373 23.9922H33.3672Z" fill="#0369A1"/>
</g>
<defs>
<clipPath id="clip0_339_4145">
<rect width="30" height="30" fill="white" transform="translate(13 13)"/>
</clipPath>
</defs>
</svg>
