<svg width="56" height="56" viewBox="0 0 56 56" fill="none" xmlns="http://www.w3.org/2000/svg">
<path d="M0 28C0 12.536 12.536 0 28 0C43.464 0 56 12.536 56 28C56 43.464 43.464 56 28 56C12.536 56 0 43.464 0 28Z" fill="#E0F2FE"/>
<g clip-path="url(#clip0_339_4133)">
<path d="M36.3789 35.5117C35.084 33.2617 32.6523 31.75 29.875 31.75H26.125C23.3477 31.75 20.916 33.2617 19.6211 35.5117C21.6836 37.8086 24.6719 39.25 28 39.25C31.3281 39.25 34.3164 37.8027 36.3789 35.5117ZM13 28C13 24.0218 14.5804 20.2064 17.3934 17.3934C20.2064 14.5804 24.0218 13 28 13C31.9782 13 35.7936 14.5804 38.6066 17.3934C41.4196 20.2064 43 24.0218 43 28C43 31.9782 41.4196 35.7936 38.6066 38.6066C35.7936 41.4196 31.9782 43 28 43C24.0218 43 20.2064 41.4196 17.3934 38.6066C14.5804 35.7936 13 31.9782 13 28ZM28 28.9375C29.1189 28.9375 30.1919 28.493 30.9831 27.7019C31.7743 26.9107 32.2188 25.8376 32.2188 24.7188C32.2188 23.5999 31.7743 22.5268 30.9831 21.7356C30.1919 20.9445 29.1189 20.5 28 20.5C26.8811 20.5 25.8081 20.9445 25.0169 21.7356C24.2257 22.5268 23.7812 23.5999 23.7812 24.7188C23.7812 25.8376 24.2257 26.9107 25.0169 27.7019C25.8081 28.493 26.8811 28.9375 28 28.9375Z" fill="#0369A1"/>
</g>
<defs>
<clipPath id="clip0_339_4133">
<rect width="30" height="30" fill="white" transform="translate(13 13)"/>
</clipPath>
</defs>
</svg>
