<svg width="56" height="56" viewBox="0 0 56 56" fill="none" xmlns="http://www.w3.org/2000/svg">
<path d="M0 28C0 12.536 12.536 0 28 0C43.464 0 56 12.536 56 28C56 43.464 43.464 56 28 56C12.536 56 0 43.464 0 28Z" fill="#E0F2FE"/>
<path d="M20.9266 25.4968C21.2875 24.475 21.8734 23.514 22.6984 22.6937C25.6281 19.764 30.3766 19.764 33.3063 22.6937L34.1078 23.5H31.75C30.9203 23.5 30.25 24.1703 30.25 25C30.25 25.8296 30.9203 26.5 31.75 26.5H37.7266H37.7453C38.575 26.5 39.2453 25.8296 39.2453 25V19C39.2453 18.1703 38.575 17.5 37.7453 17.5C36.9156 17.5 36.2453 18.1703 36.2453 19V21.4L35.425 20.575C31.3234 16.4734 24.6766 16.4734 20.575 20.575C19.4312 21.7187 18.6062 23.064 18.1 24.5031C17.8234 25.2859 18.2359 26.139 19.0141 26.4156C19.7922 26.6921 20.65 26.2796 20.9266 25.5015V25.4968ZM17.8281 29.5609C17.5938 29.6312 17.3687 29.7578 17.1859 29.9453C16.9984 30.1328 16.8719 30.3578 16.8063 30.6015C16.7922 30.6578 16.7781 30.7187 16.7687 30.7796C16.7547 30.8593 16.75 30.939 16.75 31.0187V37C16.75 37.8296 17.4203 38.5 18.25 38.5C19.0797 38.5 19.75 37.8296 19.75 37V34.6046L20.575 35.4249C24.6766 39.5218 31.3234 39.5218 35.4203 35.4249C36.5641 34.2812 37.3938 32.9359 37.9 31.5015C38.1766 30.7187 37.7641 29.8656 36.9859 29.589C36.2078 29.3125 35.35 29.725 35.0734 30.5031C34.7125 31.525 34.1266 32.4859 33.3016 33.3062C30.3719 36.2359 25.6234 36.2359 22.6938 33.3062L22.6891 33.3015L21.8875 32.5H24.25C25.0797 32.5 25.75 31.8296 25.75 31C25.75 30.1703 25.0797 29.5 24.25 29.5H18.2688C18.1938 29.5 18.1187 29.5046 18.0437 29.514C17.9687 29.5234 17.8984 29.5375 17.8281 29.5609Z" fill="#0369A1"/>
</svg>
