<svg width="56" height="56" viewBox="0 0 56 56" fill="none" xmlns="http://www.w3.org/2000/svg">
<path d="M0 28C0 12.536 12.536 0 28 0C43.464 0 56 12.536 56 28C56 43.464 43.464 56 28 56C12.536 56 0 43.464 0 28Z" fill="#E0F2FE"/>
<g clip-path="url(#clip0_336_3451)">
<path d="M27.4094 16.122L16.9094 20.622C16.2532 20.9032 15.8876 21.6063 16.0329 22.3001C16.1782 22.9938 16.7876 23.5001 17.5001 23.5001V23.8751C17.5001 24.4985 18.0016 25.0001 18.6251 25.0001H37.3751C37.9985 25.0001 38.5001 24.4985 38.5001 23.8751V23.5001C39.2126 23.5001 39.8266 22.9985 39.9672 22.3001C40.1079 21.6017 39.7422 20.8985 39.0907 20.622L28.5907 16.122C28.2157 15.9626 27.7844 15.9626 27.4094 16.122ZM22.0001 26.5001H19.0001V35.7017C18.9719 35.7157 18.9438 35.7345 18.9157 35.7532L16.6657 37.2532C16.1172 37.6188 15.8688 38.3032 16.061 38.936C16.2532 39.5688 16.8391 40.0001 17.5001 40.0001H38.5001C39.161 40.0001 39.7422 39.5688 39.9344 38.936C40.1266 38.3032 39.8829 37.6188 39.3297 37.2532L37.0797 35.7532C37.0516 35.7345 37.0235 35.7204 36.9954 35.7017V26.5001H34.0001V35.5001H32.1251V26.5001H29.1251V35.5001H26.8751V26.5001H23.8751V35.5001H22.0001V26.5001ZM28.0001 19.0001C28.3979 19.0001 28.7794 19.1581 29.0607 19.4394C29.342 19.7207 29.5001 20.1023 29.5001 20.5001C29.5001 20.8979 29.342 21.2795 29.0607 21.5608C28.7794 21.8421 28.3979 22.0001 28.0001 22.0001C27.6022 22.0001 27.2207 21.8421 26.9394 21.5608C26.6581 21.2795 26.5001 20.8979 26.5001 20.5001C26.5001 20.1023 26.6581 19.7207 26.9394 19.4394C27.2207 19.1581 27.6022 19.0001 28.0001 19.0001Z" fill="#0369A1"/>
</g>
<defs>
<clipPath id="clip0_336_3451">
<rect width="24" height="24" fill="white" transform="translate(16 16)"/>
</clipPath>
</defs>
</svg>
