<svg width="56" height="56" viewBox="0 0 56 56" fill="none" xmlns="http://www.w3.org/2000/svg">
<path d="M0 28C0 12.536 12.536 0 28 0C43.464 0 56 12.536 56 28C56 43.464 43.464 56 28 56C12.536 56 0 43.464 0 28Z" fill="#E0F2FE"/>
<g clip-path="url(#clip0_336_3466)">
<path d="M39 19.75V22C39 24.0719 34.2984 25.75 28.5 25.75C22.7016 25.75 18 24.0719 18 22V19.75C18 17.6781 22.7016 16 28.5 16C34.2984 16 39 17.6781 39 19.75ZM36.4313 26.0641C37.4062 25.7172 38.3016 25.2719 39 24.7234V29.5C39 31.5719 34.2984 33.25 28.5 33.25C22.7016 33.25 18 31.5719 18 29.5V24.7234C18.6984 25.2766 19.5938 25.7172 20.5687 26.0641C22.6734 26.8141 25.4766 27.25 28.5 27.25C31.5234 27.25 34.3266 26.8141 36.4313 26.0641ZM18 32.2234C18.6984 32.7766 19.5938 33.2172 20.5687 33.5641C22.6734 34.3141 25.4766 34.75 28.5 34.75C31.5234 34.75 34.3266 34.3141 36.4313 33.5641C37.4062 33.2172 38.3016 32.7719 39 32.2234V36.25C39 38.3219 34.2984 40 28.5 40C22.7016 40 18 38.3219 18 36.25V32.2234Z" fill="#0369A1"/>
</g>
<defs>
<clipPath id="clip0_336_3466">
<rect width="21" height="24" fill="white" transform="translate(18 16)"/>
</clipPath>
</defs>
</svg>
