<svg width="56" height="56" viewBox="0 0 56 56" fill="none" xmlns="http://www.w3.org/2000/svg">
<path d="M0 28C0 12.536 12.536 0 28 0C43.464 0 56 12.536 56 28C56 43.464 43.464 56 28 56C12.536 56 0 43.464 0 28Z" fill="#E0F2FE"/>
<g clip-path="url(#clip0_283_1234)">
<path d="M27.4094 16.1219L16.9094 20.6219C16.2532 20.9031 15.8876 21.6062 16.0329 22.3C16.1782 22.9937 16.7876 23.5 17.5001 23.5V23.875C17.5001 24.4984 18.0016 25 18.6251 25H37.3751C37.9985 25 38.5001 24.4984 38.5001 23.875V23.5C39.2126 23.5 39.8266 22.9984 39.9672 22.3C40.1079 21.6015 39.7422 20.8984 39.0907 20.6219L28.5907 16.1219C28.2157 15.9625 27.7844 15.9625 27.4094 16.1219ZM22.0001 26.5H19.0001V35.7015C18.9719 35.7156 18.9438 35.7344 18.9157 35.7531L16.6657 37.2531C16.1172 37.6187 15.8688 38.3031 16.061 38.9359C16.2532 39.5687 16.8391 40 17.5001 40H38.5001C39.161 40 39.7422 39.5687 39.9344 38.9359C40.1266 38.3031 39.8829 37.6187 39.3297 37.2531L37.0797 35.7531C37.0516 35.7344 37.0235 35.7203 36.9954 35.7015V26.5H34.0001V35.5H32.1251V26.5H29.1251V35.5H26.8751V26.5H23.8751V35.5H22.0001V26.5ZM28.0001 19C28.3979 19 28.7794 19.158 29.0607 19.4393C29.342 19.7206 29.5001 20.1022 29.5001 20.5C29.5001 20.8978 29.342 21.2793 29.0607 21.5606C28.7794 21.8419 28.3979 22 28.0001 22C27.6022 22 27.2207 21.8419 26.9394 21.5606C26.6581 21.2793 26.5001 20.8978 26.5001 20.5C26.5001 20.1022 26.6581 19.7206 26.9394 19.4393C27.2207 19.158 27.6022 19 28.0001 19Z" fill="#0369A1"/>
</g>
<defs>
<clipPath id="clip0_283_1234">
<rect width="24" height="24" fill="white" transform="translate(16 16)"/>
</clipPath>
</defs>
</svg>
