<svg width="56" height="56" viewBox="0 0 56 56" fill="none" xmlns="http://www.w3.org/2000/svg">
<path d="M0 28C0 12.536 12.536 0 28 0C43.464 0 56 12.536 56 28C56 43.464 43.464 56 28 56C12.536 56 0 43.464 0 28Z" fill="#E0F2FE"/>
<g clip-path="url(#clip0_284_2379)">
<path d="M28.625 27.25V16.7781C28.625 16.3563 28.9531 16 29.375 16C35.1734 16 39.875 20.7016 39.875 26.5C39.875 26.9219 39.5188 27.25 39.0969 27.25H28.625ZM15.875 28.75C15.875 23.0641 20.0984 18.3578 25.5781 17.6078C26.0094 17.5469 26.375 17.8938 26.375 18.3297V29.5L33.7109 36.8359C34.025 37.15 34.0016 37.6656 33.6406 37.9188C31.8031 39.2313 29.5531 40 27.125 40C20.9141 40 15.875 34.9656 15.875 28.75ZM40.55 29.5C40.9859 29.5 41.3281 29.8656 41.2719 30.2969C40.9109 32.9172 39.65 35.2469 37.8078 36.9672C37.5266 37.2297 37.0859 37.2109 36.8141 36.9344L29.375 29.5H40.55Z" fill="#0369A1"/>
</g>
<defs>
<clipPath id="clip0_284_2379">
<rect width="27" height="24" fill="white" transform="translate(14.375 16)"/>
</clipPath>
</defs>
</svg>
