<svg width="56" height="56" viewBox="0 0 56 56" fill="none" xmlns="http://www.w3.org/2000/svg">
<path d="M0 28C0 12.536 12.536 0 28 0C43.464 0 56 12.536 56 28C56 43.464 43.464 56 28 56C12.536 56 0 43.464 0 28Z" fill="#E0F2FE"/>
<g clip-path="url(#clip0_284_2388)">
<path d="M28 13C28.2696 13 28.5391 13.0586 28.7852 13.1699L39.8184 17.8516C41.1074 18.3965 42.0684 19.668 42.0625 21.2031C42.0332 27.0156 39.6426 37.6504 29.5469 42.4844C28.5684 42.9531 27.4317 42.9531 26.4532 42.4844C16.3574 37.6504 13.9668 27.0156 13.9375 21.2031C13.9317 19.668 14.8926 18.3965 16.1817 17.8516L27.2207 13.1699C27.461 13.0586 27.7305 13 28 13ZM28 16.9141V39.0625C36.086 35.1484 38.2598 26.4824 38.3125 21.2852L28 16.9141Z" fill="#0369A1"/>
</g>
<defs>
<clipPath id="clip0_284_2388">
<rect width="30" height="30" fill="white" transform="translate(13 13)"/>
</clipPath>
</defs>
</svg>
