<svg width="56" height="56" viewBox="0 0 56 56" fill="none" xmlns="http://www.w3.org/2000/svg">
<path d="M0 28C0 12.536 12.536 0 28 0C43.464 0 56 12.536 56 28C56 43.464 43.464 56 28 56C12.536 56 0 43.464 0 28Z" fill="#E0F2FE"/>
<path d="M18 17.5C16.3453 17.5 15 18.8453 15 20.5V22H42V20.5C42 18.8453 40.6547 17.5 39 17.5H18ZM42 26.5H15V35.5C15 37.1547 16.3453 38.5 18 38.5H39C40.6547 38.5 42 37.1547 42 35.5V26.5ZM20.25 32.5H23.25C23.6625 32.5 24 32.8375 24 33.25C24 33.6625 23.6625 34 23.25 34H20.25C19.8375 34 19.5 33.6625 19.5 33.25C19.5 32.8375 19.8375 32.5 20.25 32.5ZM25.5 33.25C25.5 32.8375 25.8375 32.5 26.25 32.5H32.25C32.6625 32.5 33 32.8375 33 33.25C33 33.6625 32.6625 34 32.25 34H26.25C25.8375 34 25.5 33.6625 25.5 33.25Z" fill="#0369A1"/>
</svg>
