<svg width="56" height="56" viewBox="0 0 56 56" fill="none" xmlns="http://www.w3.org/2000/svg">
<path d="M0 28C0 12.536 12.536 0 28 0C43.464 0 56 12.536 56 28C56 43.464 43.464 56 28 56C12.536 56 0 43.464 0 28Z" fill="#E0F2FE"/>
<g clip-path="url(#clip0_285_3699)">
<path d="M23.3407 34.0423L21.8922 32.5938C21.4938 32.1954 21.3532 31.6188 21.5313 31.0845C21.6719 30.6673 21.8594 30.1235 22.0844 29.5001H17.125C16.7219 29.5001 16.3469 29.2845 16.1454 28.9329C15.9438 28.5813 15.9485 28.1501 16.1547 27.8032L18.6157 23.6548C19.225 22.6282 20.3266 22.0001 21.5172 22.0001H25.375C25.4875 21.8126 25.6 21.6391 25.7125 21.4704C29.5516 15.8079 35.2704 15.6204 38.6829 16.2485C39.2266 16.347 39.6485 16.7735 39.7516 17.3173C40.3797 20.7345 40.1875 26.4485 34.5297 30.2876C34.3657 30.4001 34.1875 30.5126 34 30.6251V34.4829C34 35.6735 33.3719 36.7798 32.3454 37.3845L28.1969 39.8454C27.85 40.0516 27.4188 40.0563 27.0672 39.8548C26.7157 39.6532 26.5 39.2829 26.5 38.8751V33.8501C25.8391 34.0798 25.2625 34.2673 24.8266 34.4079C24.3016 34.5766 23.7297 34.4313 23.336 34.0423H23.3407ZM34 23.8751C34.4973 23.8751 34.9742 23.6775 35.3259 23.3259C35.6775 22.9743 35.875 22.4974 35.875 22.0001C35.875 21.5028 35.6775 21.0259 35.3259 20.6743C34.9742 20.3226 34.4973 20.1251 34 20.1251C33.5028 20.1251 33.0259 20.3226 32.6742 20.6743C32.3226 21.0259 32.125 21.5028 32.125 22.0001C32.125 22.4974 32.3226 22.9743 32.6742 23.3259C33.0259 23.6775 33.5028 23.8751 34 23.8751Z" fill="#0369A1"/>
</g>
<defs>
<clipPath id="clip0_285_3699">
<rect width="24" height="24" fill="white" transform="translate(16 16)"/>
</clipPath>
</defs>
</svg>
