<svg width="56" height="56" viewBox="0 0 56 56" fill="none" xmlns="http://www.w3.org/2000/svg">
<path d="M0 28C0 12.536 12.536 0 28 0C43.464 0 56 12.536 56 28C56 43.464 43.464 56 28 56C12.536 56 0 43.464 0 28Z" fill="#E0F2FE"/>
<g clip-path="url(#clip0_285_3673)">
<path d="M28 16C28.2156 16 28.4313 16.0469 28.6281 16.1359L37.4547 19.8813C38.486 20.3172 39.2547 21.3344 39.25 22.5625C39.2266 27.2125 37.3141 35.7203 29.2375 39.5875C28.4547 39.9625 27.5453 39.9625 26.7625 39.5875C18.686 35.7203 16.7735 27.2125 16.75 22.5625C16.7453 21.3344 17.5141 20.3172 18.5453 19.8813L27.3766 16.1359C27.5688 16.0469 27.7844 16 28 16ZM28 19.1313V36.85C34.4688 33.7188 36.2078 26.7859 36.25 22.6281L28 19.1313Z" fill="#0369A1"/>
</g>
<defs>
<clipPath id="clip0_285_3673">
<rect width="24" height="24" fill="white" transform="translate(16 16)"/>
</clipPath>
</defs>
</svg>
