<svg width="56" height="56" viewBox="0 0 56 56" fill="none" xmlns="http://www.w3.org/2000/svg">
<path d="M0 28C0 12.536 12.536 0 28 0C43.464 0 56 12.536 56 28C56 43.464 43.464 56 28 56C12.536 56 0 43.464 0 28Z" fill="#E0F2FE"/>
<g clip-path="url(#clip0_285_3706)">
<path d="M19.75 19C19.75 17.3453 21.0953 16 22.75 16H33.25C34.9047 16 36.25 17.3453 36.25 19V37C36.25 38.6547 34.9047 40 33.25 40H22.75C21.0953 40 19.75 38.6547 19.75 37V19ZM29.5 37C29.5 36.6022 29.342 36.2206 29.0607 35.9393C28.7794 35.658 28.3978 35.5 28 35.5C27.6022 35.5 27.2206 35.658 26.9393 35.9393C26.658 36.2206 26.5 36.6022 26.5 37C26.5 37.3978 26.658 37.7794 26.9393 38.0607C27.2206 38.342 27.6022 38.5 28 38.5C28.3978 38.5 28.7794 38.342 29.0607 38.0607C29.342 37.7794 29.5 37.3978 29.5 37ZM33.25 19H22.75V34H33.25V19Z" fill="#0369A1"/>
</g>
<defs>
<clipPath id="clip0_285_3706">
<rect width="18" height="24" fill="white" transform="translate(19 16)"/>
</clipPath>
</defs>
</svg>
