<svg width="56" height="56" viewBox="0 0 56 56" fill="none" xmlns="http://www.w3.org/2000/svg">
<path d="M0 28C0 12.536 12.536 0 28 0C43.464 0 56 12.536 56 28C56 43.464 43.464 56 28 56C12.536 56 0 43.464 0 28Z" fill="#E0F2FE"/>
<g clip-path="url(#clip0_345_6037)">
<path d="M28 16C31.1826 16 34.2348 17.2643 36.4853 19.5147C38.7357 21.7652 40 24.8174 40 28C40 31.1826 38.7357 34.2348 36.4853 36.4853C34.2348 38.7357 31.1826 40 28 40C24.8174 40 21.7652 38.7357 19.5147 36.4853C17.2643 34.2348 16 31.1826 16 28C16 24.8174 17.2643 21.7652 19.5147 19.5147C21.7652 17.2643 24.8174 16 28 16ZM26.875 21.625V28C26.875 28.375 27.0625 28.7266 27.3766 28.9375L31.8766 31.9375C32.3922 32.2844 33.0906 32.1437 33.4375 31.6234C33.7844 31.1031 33.6437 30.4094 33.1234 30.0625L29.125 27.4V21.625C29.125 21.0016 28.6234 20.5 28 20.5C27.3766 20.5 26.875 21.0016 26.875 21.625Z" fill="#0369A1"/>
</g>
<defs>
<clipPath id="clip0_345_6037">
<rect width="24" height="24" fill="white" transform="translate(16 16)"/>
</clipPath>
</defs>
</svg>
