<svg width="56" height="56" viewBox="0 0 56 56" fill="none" xmlns="http://www.w3.org/2000/svg">
<path d="M0 28C0 12.536 12.536 0 28 0C43.464 0 56 12.536 56 28C56 43.464 43.464 56 28 56C12.536 56 0 43.464 0 28Z" fill="#E0F2FE"/>
<path d="M35.5 33C36.163 33 36.7989 33.2634 37.2678 33.7322C37.7366 34.2011 38 34.837 38 35.5C38 36.163 37.7366 36.7989 37.2678 37.2678C36.7989 37.7366 36.163 38 35.5 38C34.837 38 34.2011 37.7366 33.7322 37.2678C33.2634 36.7989 33 36.163 33 35.5M35.5 33C34.837 33 34.2011 33.2634 33.7322 33.7322C33.2634 34.2011 33 34.837 33 35.5M35.5 33V23M33 35.5H23M23 35.5C23 34.837 22.7366 34.2011 22.2678 33.7322C21.7989 33.2634 21.163 33 20.5 33M23 35.5C23 36.163 22.7366 36.7989 22.2678 37.2678C21.7989 37.7366 21.163 38 20.5 38C19.837 38 19.2011 37.7366 18.7322 37.2678C18.2634 36.7989 18 36.163 18 35.5C18 34.837 18.2634 34.2011 18.7322 33.7322C19.2011 33.2634 19.837 33 20.5 33M20.5 33V23M23 20.5C23 19.837 22.7366 19.2011 22.2678 18.7322C21.7989 18.2634 21.163 18 20.5 18C19.837 18 19.2011 18.2634 18.7322 18.7322C18.2634 19.2011 18 19.837 18 20.5C18 21.163 18.2634 21.7989 18.7322 22.2678C19.2011 22.7366 19.837 23 20.5 23M23 20.5C23 21.163 22.7366 21.7989 22.2678 22.2678C21.7989 22.7366 21.163 23 20.5 23M23 20.5H33M33 20.5C33 19.837 33.2634 19.2011 33.7322 18.7322C34.2011 18.2634 34.837 18 35.5 18C36.163 18 36.7989 18.2634 37.2678 18.7322C37.7366 19.2011 38 19.837 38 20.5C38 21.163 37.7366 21.7989 37.2678 22.2678C36.7989 22.7366 36.163 23 35.5 23M33 20.5C33 21.163 33.2634 21.7989 33.7322 22.2678C34.2011 22.7366 34.837 23 35.5 23M22.375 22.375L26.125 26.125M30.5 28C30.5 27.337 30.2366 26.7011 29.7678 26.2322C29.2989 25.7634 28.663 25.5 28 25.5C27.337 25.5 26.7011 25.7634 26.2322 26.2322C25.7634 26.7011 25.5 27.337 25.5 28C25.5 28.663 25.7634 29.2989 26.2322 29.7678C26.7011 30.2366 27.337 30.5 28 30.5C28.663 30.5 29.2989 30.2366 29.7678 29.7678C30.2366 29.2989 30.5 28.663 30.5 28Z" stroke="#0369A1" stroke-width="2" stroke-linecap="round" stroke-linejoin="round"/>
</svg>
