<svg width="56" height="56" viewBox="0 0 56 56" fill="none" xmlns="http://www.w3.org/2000/svg">
<path d="M0 28C0 12.536 12.536 0 28 0C43.464 0 56 12.536 56 28C56 43.464 43.464 56 28 56C12.536 56 0 43.464 0 28Z" fill="#E0F2FE"/>
<g clip-path="url(#clip0_345_6047)">
<path d="M14.819 16.2391C14.3315 15.8547 13.6237 15.9438 13.2393 16.4313C12.855 16.9188 12.944 17.6266 13.4315 18.011L41.1815 39.761C41.669 40.1453 42.3768 40.0563 42.7612 39.5688C43.1456 39.0813 43.0565 38.3735 42.569 37.9891L33.6534 31H42.0018C42.555 31 43.0003 30.55 43.0003 30.0016C43.0003 27.2406 40.7596 25 37.9987 25H36.0018C35.2565 25 34.5487 25.1641 33.9112 25.4547C33.9721 25.7922 34.0003 26.1438 34.0003 26.5C34.0003 27.9156 33.5081 29.2188 32.6878 30.2453L31.5065 29.3219C32.1299 28.5485 32.5003 27.5688 32.5003 26.5C32.5003 24.0156 30.4846 22 28.0003 22C26.5425 22 25.2487 22.6938 24.4237 23.7672L22.5206 22.2766C23.13 21.611 23.5003 20.725 23.5003 19.75C23.5003 17.6781 21.8221 16 19.7503 16C18.4518 16 17.3081 16.661 16.6331 17.6641L14.819 16.2391ZM18.0018 25C15.2409 25 13.0003 27.2406 13.0003 30.0016C13.0003 30.55 13.4503 31 13.9987 31H24.0018C24.0112 31 24.0206 31 24.0346 31C23.069 30.1469 22.3846 28.9938 22.1221 27.6813L18.7096 25H18.0018ZM25.2487 32.5C21.7987 32.5 19.0003 35.2985 19.0003 38.7485C19.0003 39.4375 19.5581 40 20.2518 40H35.7487C36.2409 40 36.6628 39.7188 36.869 39.3063L28.2299 32.5H25.2487ZM37.0003 23.5C37.9948 23.5 38.9487 23.1049 39.6519 22.4017C40.3552 21.6984 40.7503 20.7446 40.7503 19.75C40.7503 18.7555 40.3552 17.8016 39.6519 17.0984C38.9487 16.3951 37.9948 16 37.0003 16C36.0057 16 35.0519 16.3951 34.3486 17.0984C33.6454 17.8016 33.2503 18.7555 33.2503 19.75C33.2503 20.7446 33.6454 21.6984 34.3486 22.4017C35.0519 23.1049 36.0057 23.5 37.0003 23.5Z" fill="#0369A1"/>
</g>
<defs>
<clipPath id="clip0_345_6047">
<rect width="30" height="24" fill="white" transform="translate(13 16)"/>
</clipPath>
</defs>
</svg>
