<svg width="56" height="56" viewBox="0 0 56 56" fill="none" xmlns="http://www.w3.org/2000/svg">
<path d="M0 28C0 12.536 12.536 0 28 0C43.464 0 56 12.536 56 28C56 43.464 43.464 56 28 56C12.536 56 0 43.464 0 28Z" fill="#E0F2FE"/>
<g clip-path="url(#clip0_345_6152)">
<path d="M20.75 13C18.6816 13 17 14.6816 17 16.75V39.25C17 41.3184 18.6816 43 20.75 43H35.75C37.8184 43 39.5 41.3184 39.5 39.25V16.75C39.5 14.6816 37.8184 13 35.75 13H20.75ZM22.625 16.75H33.875C34.9121 16.75 35.75 17.5879 35.75 18.625V20.5C35.75 21.5371 34.9121 22.375 33.875 22.375H22.625C21.5879 22.375 20.75 21.5371 20.75 20.5V18.625C20.75 17.5879 21.5879 16.75 22.625 16.75ZM24.5 26.125C24.5 26.6223 24.3025 27.0992 23.9508 27.4508C23.5992 27.8025 23.1223 28 22.625 28C22.1277 28 21.6508 27.8025 21.2992 27.4508C20.9475 27.0992 20.75 26.6223 20.75 26.125C20.75 25.6277 20.9475 25.1508 21.2992 24.7992C21.6508 24.4475 22.1277 24.25 22.625 24.25C23.1223 24.25 23.5992 24.4475 23.9508 24.7992C24.3025 25.1508 24.5 25.6277 24.5 26.125ZM22.625 33.625C22.1277 33.625 21.6508 33.4275 21.2992 33.0758C20.9475 32.7242 20.75 32.2473 20.75 31.75C20.75 31.2527 20.9475 30.7758 21.2992 30.4242C21.6508 30.0725 22.1277 29.875 22.625 29.875C23.1223 29.875 23.5992 30.0725 23.9508 30.4242C24.3025 30.7758 24.5 31.2527 24.5 31.75C24.5 32.2473 24.3025 32.7242 23.9508 33.0758C23.5992 33.4275 23.1223 33.625 22.625 33.625ZM20.75 37.375C20.75 36.3379 21.5879 35.5 22.625 35.5H28.25C29.2871 35.5 30.125 36.3379 30.125 37.375C30.125 38.4121 29.2871 39.25 28.25 39.25H22.625C21.5879 39.25 20.75 38.4121 20.75 37.375ZM28.25 28C27.7527 28 27.2758 27.8025 26.9242 27.4508C26.5725 27.0992 26.375 26.6223 26.375 26.125C26.375 25.6277 26.5725 25.1508 26.9242 24.7992C27.2758 24.4475 27.7527 24.25 28.25 24.25C28.7473 24.25 29.2242 24.4475 29.5758 24.7992C29.9275 25.1508 30.125 25.6277 30.125 26.125C30.125 26.6223 29.9275 27.0992 29.5758 27.4508C29.2242 27.8025 28.7473 28 28.25 28ZM30.125 31.75C30.125 32.2473 29.9275 32.7242 29.5758 33.0758C29.2242 33.4275 28.7473 33.625 28.25 33.625C27.7527 33.625 27.2758 33.4275 26.9242 33.0758C26.5725 32.7242 26.375 32.2473 26.375 31.75C26.375 31.2527 26.5725 30.7758 26.9242 30.4242C27.2758 30.0725 27.7527 29.875 28.25 29.875C28.7473 29.875 29.2242 30.0725 29.5758 30.4242C29.9275 30.7758 30.125 31.2527 30.125 31.75ZM33.875 28C33.3777 28 32.9008 27.8025 32.5492 27.4508C32.1975 27.0992 32 26.6223 32 26.125C32 25.6277 32.1975 25.1508 32.5492 24.7992C32.9008 24.4475 33.3777 24.25 33.875 24.25C34.3723 24.25 34.8492 24.4475 35.2008 24.7992C35.5525 25.1508 35.75 25.6277 35.75 26.125C35.75 26.6223 35.5525 27.0992 35.2008 27.4508C34.8492 27.8025 34.3723 28 33.875 28ZM35.75 31.75C35.75 32.2473 35.5525 32.7242 35.2008 33.0758C34.8492 33.4275 34.3723 33.625 33.875 33.625C33.3777 33.625 32.9008 33.4275 32.5492 33.0758C32.1975 32.7242 32 32.2473 32 31.75C32 31.2527 32.1975 30.7758 32.5492 30.4242C32.9008 30.0725 33.3777 29.875 33.875 29.875C34.3723 29.875 34.8492 30.0725 35.2008 30.4242C35.5525 30.7758 35.75 31.2527 35.75 31.75ZM33.875 39.25C33.3777 39.25 32.9008 39.0525 32.5492 38.7008C32.1975 38.3492 32 37.8723 32 37.375C32 36.8777 32.1975 36.4008 32.5492 36.0492C32.9008 35.6975 33.3777 35.5 33.875 35.5C34.3723 35.5 34.8492 35.6975 35.2008 36.0492C35.5525 36.4008 35.75 36.8777 35.75 37.375C35.75 37.8723 35.5525 38.3492 35.2008 38.7008C34.8492 39.0525 34.3723 39.25 33.875 39.25Z" fill="#0369A1"/>
</g>
<defs>
<clipPath id="clip0_345_6152">
<rect width="22.5" height="30" fill="white" transform="translate(17 13)"/>
</clipPath>
</defs>
</svg>
