<svg width="56" height="56" viewBox="0 0 56 56" fill="none" xmlns="http://www.w3.org/2000/svg">
<path d="M0 28C0 12.536 12.536 0 28 0C43.464 0 56 12.536 56 28C56 43.464 43.464 56 28 56C12.536 56 0 43.464 0 28Z" fill="#E0F2FE"/>
<g clip-path="url(#clip0_345_6174)">
<path d="M11 16.75C11 14.6816 12.6816 13 14.75 13H24.125V20.5C24.125 21.5371 24.9629 22.375 26 22.375H33.5V25.1289L28.0625 27.3027C26.8145 27.8008 26 29.0078 26 30.3496C26 33.666 27.1074 39.0215 31.5195 42.5547C30.9922 42.8359 30.3887 43 29.75 43H14.75C12.6816 43 11 41.3184 11 39.25V16.75ZM33.5 20.5H26V13L33.5 20.5ZM35.791 26.2246C36.125 26.0898 36.5 26.0898 36.834 26.2246L43.8652 29.0371C44.3984 29.2539 44.75 29.7695 44.75 30.3438C44.75 34.0527 43.2324 40.2344 36.8516 42.8945C36.5059 43.041 36.1133 43.041 35.7676 42.8945C29.3926 40.2344 27.875 34.0527 27.875 30.3438C27.875 29.7695 28.2266 29.2539 28.7598 29.0371L35.791 26.2246ZM41.9023 31.2812L36.3125 29.043V40.0527C40.3086 38.1191 41.6738 34.252 41.9023 31.2812Z" fill="#0369A1"/>
</g>
<defs>
<clipPath id="clip0_345_6174">
<rect width="33.75" height="30" fill="white" transform="translate(11 13)"/>
</clipPath>
</defs>
</svg>
