<svg width="56" height="56" viewBox="0 0 56 56" fill="none" xmlns="http://www.w3.org/2000/svg">
<path d="M0 28C0 12.536 12.536 0 28 0C43.464 0 56 12.536 56 28C56 43.464 43.464 56 28 56C12.536 56 0 43.464 0 28Z" fill="#E0F2FE"/>
<g clip-path="url(#clip0_345_6163)">
<path d="M22.7495 32.5C28.1355 32.5 32.4995 28.8062 32.4995 24.25C32.4995 19.6938 28.1355 16 22.7495 16C17.3636 16 12.9995 19.6938 12.9995 24.25C12.9995 26.0594 13.6886 27.7328 14.8558 29.0969C14.6917 29.5375 14.448 29.9266 14.1902 30.2547C13.9652 30.5453 13.7355 30.7703 13.5667 30.925C13.4823 31 13.412 31.0609 13.3652 31.0984C13.3417 31.1172 13.323 31.1312 13.3136 31.1359L13.3042 31.1453C13.0464 31.3375 12.9339 31.675 13.037 31.9797C13.1402 32.2844 13.4261 32.5 13.7495 32.5C14.7714 32.5 15.8027 32.2375 16.6605 31.9141C17.0917 31.75 17.4948 31.5672 17.8464 31.3797C19.2855 32.0922 20.9589 32.5 22.7495 32.5ZM33.9995 24.25C33.9995 29.5141 29.3542 33.4797 23.8511 33.9531C24.9902 37.4406 28.7683 40 33.2495 40C35.0402 40 36.7136 39.5922 38.1573 38.8797C38.5089 39.0672 38.9073 39.25 39.3386 39.4141C40.1964 39.7375 41.2277 40 42.2495 40C42.573 40 42.8636 39.7891 42.962 39.4797C43.0605 39.1703 42.9527 38.8328 42.6902 38.6406L42.6808 38.6312C42.6714 38.6219 42.6527 38.6125 42.6292 38.5938C42.5823 38.5562 42.512 38.5 42.4277 38.4203C42.2589 38.2656 42.0292 38.0406 41.8042 37.75C41.5464 37.4219 41.3027 37.0281 41.1386 36.5922C42.3058 35.2328 42.9949 33.5594 42.9949 31.7453C42.9949 27.3953 39.0152 23.8281 33.9667 23.5187C33.9855 23.7578 33.9949 24.0016 33.9949 24.2453L33.9995 24.25Z" fill="#0369A1"/>
</g>
<defs>
<clipPath id="clip0_345_6163">
<rect width="30" height="24" fill="white" transform="translate(13 16)"/>
</clipPath>
</defs>
</svg>
