<svg width="56" height="56" viewBox="0 0 56 56" fill="none" xmlns="http://www.w3.org/2000/svg">
<path d="M0 28C0 12.536 12.536 0 28 0C43.464 0 56 12.536 56 28C56 43.464 43.464 56 28 56C12.536 56 0 43.464 0 28Z" fill="#E0F2FE"/>
<g clip-path="url(#clip0_345_6185)">
<path d="M28.8125 27.0625V13.9727C28.8125 13.4453 29.2227 13 29.75 13C36.998 13 42.875 18.877 42.875 26.125C42.875 26.6523 42.4297 27.0625 41.9023 27.0625H28.8125ZM12.875 28.9375C12.875 21.8301 18.1543 15.9473 25.0039 15.0098C25.543 14.9336 26 15.3672 26 15.9121V29.875L35.1699 39.0449C35.5625 39.4375 35.5332 40.082 35.082 40.3984C32.7852 42.0391 29.9727 43 26.9375 43C19.1738 43 12.875 36.707 12.875 28.9375ZM43.7188 29.875C44.2637 29.875 44.6914 30.332 44.6211 30.8711C44.1699 34.1465 42.5938 37.0586 40.291 39.209C39.9395 39.5371 39.3887 39.5137 39.0488 39.168L29.75 29.875H43.7188Z" fill="#0369A1"/>
</g>
<defs>
<clipPath id="clip0_345_6185">
<rect width="33.75" height="30" fill="white" transform="translate(11 13)"/>
</clipPath>
</defs>
</svg>
