<svg width="56" height="56" viewBox="0 0 56 56" fill="none" xmlns="http://www.w3.org/2000/svg">
<path d="M0 28C0 12.536 12.536 0 28 0C43.464 0 56 12.536 56 28C56 43.464 43.464 56 28 56C12.536 56 0 43.464 0 28Z" fill="#E0F2FE"/>
<g clip-path="url(#clip0_345_5861)">
<path d="M22.1756 35.5528L20.365 33.7422C19.867 33.2442 19.6912 32.5235 19.9139 31.8555C20.0897 31.334 20.324 30.6543 20.6053 29.875H14.4061C13.9022 29.875 13.4334 29.6055 13.1815 29.166C12.9295 28.7266 12.9354 28.1875 13.1932 27.7539L16.2693 22.5684C17.0311 21.2852 18.408 20.5 19.8963 20.5H24.7186C24.8592 20.2657 24.9998 20.0489 25.1404 19.8379C29.9393 12.7598 37.0877 12.5254 41.3533 13.3106C42.033 13.4336 42.5604 13.9668 42.6893 14.6465C43.4744 18.918 43.2342 26.0606 36.1619 30.8594C35.9568 31 35.7342 31.1407 35.4998 31.2813V36.1035C35.4998 37.5918 34.7147 38.9746 33.4315 39.7305L28.2459 42.8067C27.8123 43.0645 27.2733 43.0703 26.8338 42.8184C26.3943 42.5664 26.1248 42.1035 26.1248 41.5938V35.3125C25.2986 35.5996 24.5779 35.834 24.033 36.0098C23.3768 36.2207 22.6619 36.0391 22.1697 35.5528H22.1756ZM35.4998 22.8438C36.1214 22.8438 36.7176 22.5969 37.1571 22.1573C37.5966 21.7178 37.8436 21.1216 37.8436 20.5C37.8436 19.8784 37.5966 19.2823 37.1571 18.8428C36.7176 18.4032 36.1214 18.1563 35.4998 18.1563C34.8782 18.1563 34.2821 18.4032 33.8425 18.8428C33.403 19.2823 33.1561 19.8784 33.1561 20.5C33.1561 21.1216 33.403 21.7178 33.8425 22.1573C34.2821 22.5969 34.8782 22.8438 35.4998 22.8438Z" fill="#0369A1"/>
</g>
<defs>
<clipPath id="clip0_345_5861">
<rect width="30" height="30" fill="white" transform="translate(13 13)"/>
</clipPath>
</defs>
</svg>
