<svg width="56" height="56" viewBox="0 0 56 56" fill="none" xmlns="http://www.w3.org/2000/svg">
<path d="M0 28C0 12.536 12.536 0 28 0C43.464 0 56 12.536 56 28C56 43.464 43.464 56 28 56C12.536 56 0 43.464 0 28Z" fill="#E0F2FE"/>
<g clip-path="url(#clip0_339_5830)">
<path d="M31.0001 17.5H37.0001C37.8298 17.5 38.5001 18.1703 38.5001 19C38.5001 19.8297 37.8298 20.5 37.0001 20.5H31.6751C31.4313 21.7094 30.6016 22.7078 29.5001 23.1859V37H37.0001C37.8298 37 38.5001 37.6703 38.5001 38.5C38.5001 39.3297 37.8298 40 37.0001 40H28.0001H19.0001C18.1704 40 17.5001 39.3297 17.5001 38.5C17.5001 37.6703 18.1704 37 19.0001 37H26.5001V23.1859C25.3985 22.7031 24.5688 21.7047 24.3251 20.5H19.0001C18.1704 20.5 17.5001 19.8297 17.5001 19C17.5001 18.1703 18.1704 17.5 19.0001 17.5H25.0001C25.6845 16.5906 26.772 16 28.0001 16C29.2282 16 30.3157 16.5906 31.0001 17.5ZM33.6063 31H40.3938L37.0001 25.1781L33.6063 31ZM37.0001 35.5C34.0516 35.5 31.6001 33.9062 31.0938 31.8016C30.972 31.2859 31.1407 30.7563 31.4079 30.2969L35.8704 22.6469C36.1048 22.2438 36.536 22 37.0001 22C37.4641 22 37.8954 22.2484 38.1298 22.6469L42.5923 30.2969C42.8595 30.7563 43.0282 31.2859 42.9063 31.8016C42.4001 33.9062 39.9485 35.5 37.0001 35.5ZM18.9438 25.1781L15.5501 31H22.3423L18.9438 25.1781ZM13.0423 31.8016C12.9204 31.2859 13.0891 30.7563 13.3563 30.2969L17.8188 22.6469C18.0532 22.2438 18.4845 22 18.9485 22C19.4126 22 19.8438 22.2484 20.0782 22.6469L24.5407 30.2969C24.8079 30.7563 24.9766 31.2859 24.8548 31.8016C24.3438 33.9062 21.8923 35.5 18.9438 35.5C15.9954 35.5 13.5485 33.9062 13.0423 31.8016Z" fill="#0369A1"/>
</g>
<defs>
<clipPath id="clip0_339_5830">
<rect width="30" height="24" fill="white" transform="translate(13 16)"/>
</clipPath>
</defs>
</svg>
