<svg width="56" height="56" viewBox="0 0 56 56" fill="none" xmlns="http://www.w3.org/2000/svg">
<path d="M0 28C0 12.536 12.536 0 28 0C43.464 0 56 12.536 56 28C56 43.464 43.464 56 28 56C12.536 56 0 43.464 0 28Z" fill="#E0F2FE"/>
<path d="M19 19C19 18.1703 18.3297 17.5 17.5 17.5C16.6703 17.5 16 18.1703 16 19V34.75C16 36.8219 17.6781 38.5 19.75 38.5H38.5C39.3297 38.5 40 37.8297 40 37C40 36.1703 39.3297 35.5 38.5 35.5H19.75C19.3375 35.5 19 35.1625 19 34.75V19ZM38.0594 23.0594C38.6453 22.4734 38.6453 21.5219 38.0594 20.9359C37.4734 20.35 36.5219 20.35 35.9359 20.9359L31 25.8766L28.3094 23.1859C27.7234 22.6 26.7719 22.6 26.1859 23.1859L20.9359 28.4359C20.35 29.0219 20.35 29.9734 20.9359 30.5594C21.5219 31.1453 22.4734 31.1453 23.0594 30.5594L27.25 26.3734L29.9406 29.0641C30.5266 29.65 31.4781 29.65 32.0641 29.0641L38.0641 23.0641L38.0594 23.0594Z" fill="#0369A1"/>
</svg>
