<svg width="56" height="56" viewBox="0 0 56 56" fill="none" xmlns="http://www.w3.org/2000/svg">
<path d="M0 28C0 12.536 12.536 0 28 0C43.464 0 56 12.536 56 28C56 43.464 43.464 56 28 56C12.536 56 0 43.464 0 28Z" fill="#E0F2FE"/>
<g clip-path="url(#clip0_339_5820)">
<path d="M31.4123 16.0563C30.6154 15.8267 29.7857 16.2907 29.5561 17.0876L23.5561 38.0876C23.3264 38.8845 23.7904 39.7142 24.5873 39.9438C25.3842 40.1735 26.2139 39.7095 26.4436 38.9126L32.4436 17.9126C32.6732 17.1157 32.2092 16.286 31.4123 16.0563ZM35.1904 21.686C34.6045 22.272 34.6045 23.2235 35.1904 23.8095L39.3764 28.0001L35.1857 32.1907C34.5998 32.7767 34.5998 33.7282 35.1857 34.3142C35.7717 34.9001 36.7232 34.9001 37.3092 34.3142L42.5592 29.0642C43.1451 28.4782 43.1451 27.5267 42.5592 26.9407L37.3092 21.6907C36.7232 21.1048 35.7717 21.1048 35.1857 21.6907L35.1904 21.686ZM20.8139 21.686C20.2279 21.1001 19.2764 21.1001 18.6904 21.686L13.4404 26.936C12.8545 27.522 12.8545 28.4735 13.4404 29.0595L18.6904 34.3095C19.2764 34.8954 20.2279 34.8954 20.8139 34.3095C21.3998 33.7235 21.3998 32.772 20.8139 32.186L16.6232 28.0001L20.8139 23.8095C21.3998 23.2235 21.3998 22.272 20.8139 21.686Z" fill="#0369A1"/>
</g>
<defs>
<clipPath id="clip0_339_5820">
<rect width="30" height="24" fill="white" transform="translate(13 16)"/>
</clipPath>
</defs>
</svg>
