<svg width="56" height="56" viewBox="0 0 56 56" fill="none" xmlns="http://www.w3.org/2000/svg">
<path d="M0 28C0 12.536 12.536 0 28 0C43.464 0 56 12.536 56 28C56 43.464 43.464 56 28 56C12.536 56 0 43.464 0 28Z" fill="#E0F2FE"/>
<g clip-path="url(#clip0_339_5840)">
<path d="M19.75 16C20.7446 16 21.6984 16.3951 22.4017 17.0983C23.1049 17.8016 23.5 18.7554 23.5 19.75C23.5 20.7446 23.1049 21.6984 22.4017 22.4017C21.6984 23.1049 20.7446 23.5 19.75 23.5C18.7554 23.5 17.8016 23.1049 17.0983 22.4017C16.3951 21.6984 16 20.7446 16 19.75C16 18.7554 16.3951 17.8016 17.0983 17.0983C17.8016 16.3951 18.7554 16 19.75 16ZM37 16C37.9946 16 38.9484 16.3951 39.6516 17.0983C40.3549 17.8016 40.75 18.7554 40.75 19.75C40.75 20.7446 40.3549 21.6984 39.6516 22.4017C38.9484 23.1049 37.9946 23.5 37 23.5C36.0054 23.5 35.0516 23.1049 34.3484 22.4017C33.6451 21.6984 33.25 20.7446 33.25 19.75C33.25 18.7554 33.6451 17.8016 34.3484 17.0983C35.0516 16.3951 36.0054 16 37 16ZM13 30.0016C13 27.2406 15.2406 25 18.0016 25H20.0031C20.7484 25 21.4563 25.1641 22.0938 25.4547C22.0328 25.7922 22.0047 26.1438 22.0047 26.5C22.0047 28.2906 22.7922 29.8984 24.0344 31C24.025 31 24.0156 31 24.0016 31H13.9984C13.45 31 13 30.55 13 30.0016ZM31.9984 31C31.9891 31 31.9797 31 31.9656 31C33.2125 29.8984 33.9953 28.2906 33.9953 26.5C33.9953 26.1438 33.9625 25.7969 33.9062 25.4547C34.5438 25.1594 35.2516 25 35.9969 25H37.9984C40.7594 25 43 27.2406 43 30.0016C43 30.5547 42.55 31 42.0016 31H31.9984ZM23.5 26.5C23.5 25.3065 23.9741 24.1619 24.818 23.318C25.6619 22.4741 26.8065 22 28 22C29.1935 22 30.3381 22.4741 31.182 23.318C32.0259 24.1619 32.5 25.3065 32.5 26.5C32.5 27.6935 32.0259 28.8381 31.182 29.682C30.3381 30.5259 29.1935 31 28 31C26.8065 31 25.6619 30.5259 24.818 29.682C23.9741 28.8381 23.5 27.6935 23.5 26.5ZM19 38.7484C19 35.2984 21.7984 32.5 25.2484 32.5H30.7516C34.2016 32.5 37 35.2984 37 38.7484C37 39.4375 36.4422 40 35.7484 40H20.2516C19.5625 40 19 39.4422 19 38.7484Z" fill="#0369A1"/>
</g>
<defs>
<clipPath id="clip0_339_5840">
<rect width="30" height="24" fill="white" transform="translate(13 16)"/>
</clipPath>
</defs>
</svg>
