<svg width="18" height="24" viewBox="0 0 18 24" fill="none" xmlns="http://www.w3.org/2000/svg">
<path d="M8.26562 4.16251C8.73125 3.94689 9.26875 3.94689 9.73438 4.16251L16.5656 7.31876C16.8312 7.44064 17 7.70626 17 8.00001C17 8.29376 16.8312 8.55939 16.5656 8.68126L9.73438 11.8375C9.26875 12.0531 8.73125 12.0531 8.26562 11.8375L1.43438 8.68126C1.16875 8.55626 1 8.29064 1 8.00001C1 7.70939 1.16875 7.44064 1.43438 7.31876L8.26562 4.16251ZM14.9031 10.55L16.5656 11.3188C16.8312 11.4406 17 11.7063 17 12C17 12.2938 16.8312 12.5594 16.5656 12.6813L9.73438 15.8375C9.26875 16.0531 8.73125 16.0531 8.26562 15.8375L1.43438 12.6813C1.16875 12.5563 1 12.2906 1 12C1 11.7094 1.16875 11.4406 1.43438 11.3188L3.09687 10.55L7.84688 12.7438C8.57812 13.0813 9.42188 13.0813 10.1531 12.7438L14.9031 10.55ZM10.1531 16.7438L14.9031 14.55L16.5656 15.3188C16.8312 15.4406 17 15.7063 17 16C17 16.2938 16.8312 16.5594 16.5656 16.6813L9.73438 19.8375C9.26875 20.0531 8.73125 20.0531 8.26562 19.8375L1.43438 16.6813C1.16875 16.5563 1 16.2906 1 16C1 15.7094 1.16875 15.4406 1.43438 15.3188L3.09687 14.55L7.84688 16.7438C8.57812 17.0813 9.42188 17.0813 10.1531 16.7438Z" fill="#0369A1"/>
</svg>
