<svg width="56" height="56" viewBox="0 0 56 56" fill="none" xmlns="http://www.w3.org/2000/svg">
<path d="M0 28C0 12.536 12.536 0 28 0C43.464 0 56 12.536 56 28C56 43.464 43.464 56 28 56C12.536 56 0 43.464 0 28Z" fill="#E0F2FE"/>
<path d="M18.2188 39.6667C17.6814 39.6667 17.233 39.487 16.8737 39.1277C16.5143 38.7684 16.3343 38.32 16.3335 37.7825V35.3139C16.3335 35.149 16.3895 35.0105 16.5015 34.8985C16.6135 34.7865 16.7523 34.7305 16.918 34.7305C17.0837 34.7305 17.2221 34.7865 17.3333 34.8985C17.4446 35.0105 17.5002 35.149 17.5002 35.3139V37.7825C17.5002 37.9918 17.5674 38.1637 17.702 38.2982C17.8366 38.4328 18.0088 38.5 18.2188 38.5H20.6852C20.8501 38.5 20.9885 38.556 21.1005 38.668C21.2125 38.78 21.2685 38.9189 21.2685 39.0845C21.2685 39.2502 21.2125 39.3887 21.1005 39.4999C20.9885 39.6111 20.8501 39.6667 20.6852 39.6667H18.2188ZM37.7827 39.6667H35.314C35.1491 39.6667 35.0107 39.6107 34.8987 39.4987C34.7867 39.3867 34.7307 39.2479 34.7307 39.0822C34.7307 38.9165 34.7867 38.7781 34.8987 38.6669C35.0107 38.5557 35.1491 38.5 35.314 38.5H37.7827C37.9919 38.5 38.1638 38.4328 38.2983 38.2982C38.4329 38.1637 38.5002 37.9918 38.5002 37.7825V35.3139C38.5002 35.149 38.5562 35.0105 38.6682 34.8985C38.7802 34.7865 38.919 34.7305 39.0847 34.7305C39.2503 34.7305 39.3888 34.7865 39.5 34.8985C39.6112 35.0105 39.6668 35.149 39.6668 35.3139V37.7825C39.6668 38.3192 39.4872 38.7676 39.1278 39.1277C38.7685 39.4878 38.3201 39.6675 37.7827 39.6667ZM28.0002 34.685C26.1179 34.685 24.4107 34.2083 22.8785 33.2547C21.3447 32.3004 20.1197 30.9548 19.2035 29.218C19.1086 29.0298 19.0378 28.8373 18.9912 28.6405C18.9445 28.4445 18.9212 28.2447 18.9212 28.0409C18.9212 27.8208 18.9426 27.603 18.9853 27.3875C19.0281 27.1721 19.1008 26.9699 19.2035 26.7809C20.1197 25.0449 21.3447 23.6997 22.8785 22.7454C24.4107 21.7918 26.1179 21.315 28.0002 21.315C29.8824 21.315 31.5896 21.7922 33.1218 22.7465C34.6541 23.7009 35.8791 25.0464 36.7968 26.7832C36.8987 26.9714 36.9714 27.1686 37.015 27.3747C37.0586 27.5808 37.0803 27.7897 37.0803 28.0012C37.0803 28.2128 37.0586 28.422 37.015 28.6289C36.9714 28.8358 36.8991 29.0325 36.798 29.2192C35.8802 30.956 34.6552 32.3015 33.123 33.2559C31.5892 34.2087 29.8816 34.685 28.0002 34.685ZM28.0002 31.3414C28.9335 31.3414 29.7241 31.0178 30.372 30.3707C31.0199 29.7236 31.3438 28.9334 31.3438 28C31.3438 27.0667 31.0199 26.2761 30.372 25.6282C29.7241 24.9803 28.9335 24.6568 28.0002 24.6575C27.0668 24.6583 26.2762 24.9819 25.6283 25.6282C24.9804 26.2745 24.6569 27.0652 24.6577 28C24.6584 28.9349 24.982 29.7255 25.6283 30.3719C26.2747 31.0182 27.0653 31.3422 28.0002 31.3437M27.999 30.177C27.3939 30.177 26.8802 29.9651 26.4578 29.5412C26.0347 29.1181 25.8232 28.604 25.8232 27.9989C25.8232 27.3938 26.0351 26.88 26.459 26.4577C26.8829 26.0354 27.397 25.8242 28.0013 25.8242C28.6057 25.8242 29.1194 26.0358 29.5425 26.4589C29.9656 26.882 30.1772 27.3961 30.1772 28.0012C30.1772 28.6063 29.9652 29.12 29.5413 29.5424C29.1174 29.9655 28.6033 30.177 27.999 30.177ZM39.6668 18.2187V20.685C39.6668 20.8499 39.6108 20.9884 39.4988 21.1004C39.3868 21.2124 39.248 21.2684 39.0823 21.2684C38.9167 21.2684 38.7782 21.2124 38.667 21.1004C38.5558 20.9884 38.5002 20.8503 38.5002 20.6862V18.2187C38.5002 18.0087 38.4329 17.8364 38.2983 17.7019C38.1638 17.5673 37.9919 17.5 37.7827 17.5H35.314C35.1491 17.5 35.0107 17.444 34.8987 17.332C34.7867 17.22 34.7307 17.0812 34.7307 16.9155C34.7307 16.7499 34.7867 16.6114 34.8987 16.5002C35.0107 16.389 35.1491 16.3334 35.314 16.3334H37.7827C38.3193 16.3334 38.7673 16.5134 39.1267 16.8735C39.486 17.2337 39.6661 17.682 39.6668 18.2187ZM18.2188 16.3334H20.6852C20.8501 16.3334 20.9885 16.3894 21.1005 16.5014C21.2125 16.6134 21.2685 16.7522 21.2685 16.9179C21.2685 17.0835 21.2125 17.222 21.1005 17.3332C20.9885 17.4444 20.8504 17.5 20.6863 17.5H18.2188C18.0088 17.5 17.8366 17.5673 17.702 17.7019C17.5674 17.8364 17.5002 18.0087 17.5002 18.2187V20.685C17.5002 20.8499 17.4442 20.9884 17.3322 21.1004C17.2202 21.2124 17.0813 21.2684 16.9157 21.2684C16.75 21.2684 16.6116 21.2124 16.5003 21.1004C16.3891 20.9884 16.3335 20.8503 16.3335 20.6862V18.2187C16.3335 17.6813 16.5136 17.2329 16.8737 16.8735C17.2338 16.5142 17.6822 16.3342 18.2188 16.3334Z" fill="#0369A1"/>
</svg>
