<svg width="56" height="56" viewBox="0 0 56 56" fill="none" xmlns="http://www.w3.org/2000/svg">
<path d="M0 28C0 12.536 12.536 0 28 0C43.464 0 56 12.536 56 28C56 43.464 43.464 56 28 56C12.536 56 0 43.464 0 28Z" fill="#E0F2FE"/>
<path d="M21.25 20.5C20.2554 20.5 19.3016 20.8951 18.5983 21.5983C17.8951 22.3016 17.5 23.2554 17.5 24.25V25H38.5V24.25C38.5 23.2554 38.1049 22.3016 37.4016 21.5983C36.6984 20.8951 35.7446 20.5 34.75 20.5H21.25ZM38.5 26.5H17.5V31.75C17.5 32.7446 17.8951 33.6984 18.5983 34.4017C19.3016 35.1049 20.2554 35.5 21.25 35.5H34.75C35.7446 35.5 36.6984 35.1049 37.4016 34.4017C38.1049 33.6984 38.5 32.7446 38.5 31.75V26.5ZM31.75 31H34.75C34.9489 31 35.1397 31.079 35.2803 31.2197C35.421 31.3603 35.5 31.5511 35.5 31.75C35.5 31.9489 35.421 32.1397 35.2803 32.2803C35.1397 32.421 34.9489 32.5 34.75 32.5H31.75C31.5511 32.5 31.3603 32.421 31.2197 32.2803C31.079 32.1397 31 31.9489 31 31.75C31 31.5511 31.079 31.3603 31.2197 31.2197C31.3603 31.079 31.5511 31 31.75 31Z" fill="#0369A1"/>
</svg>
