<svg width="56" height="56" viewBox="0 0 56 56" fill="none" xmlns="http://www.w3.org/2000/svg">
<path d="M0 28C0 12.536 12.536 0 28 0C43.464 0 56 12.536 56 28C56 43.464 43.464 56 28 56C12.536 56 0 43.464 0 28Z" fill="#E0F2FE"/>
<g clip-path="url(#clip0_336_3746)">
<path d="M20.5 16C19.6703 16 19 16.6703 19 17.5C19 18.3297 19.6703 19 20.5 19V19.5156C20.5 21.5031 21.2922 23.4109 22.6984 24.8172L25.8766 28L22.6984 31.1828C21.2922 32.5891 20.5 34.4969 20.5 36.4844V37C19.6703 37 19 37.6703 19 38.5C19 39.3297 19.6703 40 20.5 40H22H34H35.5C36.3297 40 37 39.3297 37 38.5C37 37.6703 36.3297 37 35.5 37V36.4844C35.5 34.4969 34.7078 32.5891 33.3016 31.1828L30.1234 28L33.3063 24.8172C34.7125 23.4109 35.5047 21.5031 35.5047 19.5156V19C36.3344 19 37.0047 18.3297 37.0047 17.5C37.0047 16.6703 36.3344 16 35.5047 16H34H22H20.5ZM23.5 19.5156V19H32.5V19.5156C32.5 20.4062 32.2375 21.2688 31.75 22H24.25C23.7672 21.2688 23.5 20.4062 23.5 19.5156ZM24.25 34C24.4141 33.7516 24.6062 33.5172 24.8172 33.3016L28 30.1234L31.1828 33.3063C31.3984 33.5219 31.5859 33.7563 31.75 34.0047H24.25V34Z" fill="#0369A1"/>
</g>
<defs>
<clipPath id="clip0_336_3746">
<rect width="18" height="24" fill="white" transform="translate(19 16)"/>
</clipPath>
</defs>
</svg>
