<svg width="56" height="56" viewBox="0 0 56 56" fill="none" xmlns="http://www.w3.org/2000/svg">
<path d="M0 28C0 12.536 12.536 0 28 0C43.464 0 56 12.536 56 28C56 43.464 43.464 56 28 56C12.536 56 0 43.464 0 28Z" fill="#E0F2FE"/>
<path d="M25.0002 38.5V37H29.5017V38.5H25.0002ZM35.5002 25.75C35.5011 26.9669 35.2318 28.1688 34.7117 29.2689C34.1916 30.3691 33.4337 31.34 32.4927 32.1115C31.5942 32.8525 31.0002 33.901 31.0002 35.0665V35.5H23.5002V35.164C23.5002 34.039 23.0457 32.929 22.1592 32.2345C20.9621 31.2981 20.0473 30.0489 19.5159 28.6249C18.9846 27.2009 18.8575 25.6577 19.1487 24.166C19.7427 20.968 22.2867 18.3505 25.4712 17.686C26.6772 17.4214 27.9271 17.4306 29.129 17.7128C30.331 17.995 31.4544 18.5431 32.4165 19.3167C33.3787 20.0904 34.1552 21.0699 34.6888 22.1833C35.2225 23.2966 35.4998 24.5154 35.5002 25.75ZM22.7502 26.5C22.7502 23.3995 24.5292 21.25 27.2502 21.25V19.75C23.6307 19.75 21.2502 22.627 21.2502 26.5H22.7502Z" fill="#0369A1"/>
</svg>
