<svg width="56" height="56" viewBox="0 0 56 56" fill="none" xmlns="http://www.w3.org/2000/svg">
<path d="M0 28C0 12.536 12.536 0 28 0C43.464 0 56 12.536 56 28C56 43.464 43.464 56 28 56C12.536 56 0 43.464 0 28Z" fill="#E0F2FE"/>
<g clip-path="url(#clip0_339_4049)">
<path d="M41.25 17.6875V20.5C41.25 23.0898 35.373 25.1875 28.125 25.1875C20.877 25.1875 15 23.0898 15 20.5V17.6875C15 15.0977 20.877 13 28.125 13C35.373 13 41.25 15.0977 41.25 17.6875ZM38.0391 25.5801C39.2578 25.1465 40.377 24.5898 41.25 23.9043V29.875C41.25 32.4648 35.373 34.5625 28.125 34.5625C20.877 34.5625 15 32.4648 15 29.875V23.9043C15.873 24.5957 16.9922 25.1465 18.2109 25.5801C20.8418 26.5176 24.3457 27.0625 28.125 27.0625C31.9043 27.0625 35.4082 26.5176 38.0391 25.5801ZM15 33.2793C15.873 33.9707 16.9922 34.5215 18.2109 34.9551C20.8418 35.8926 24.3457 36.4375 28.125 36.4375C31.9043 36.4375 35.4082 35.8926 38.0391 34.9551C39.2578 34.5215 40.377 33.9648 41.25 33.2793V38.3125C41.25 40.9023 35.373 43 28.125 43C20.877 43 15 40.9023 15 38.3125V33.2793Z" fill="#0369A1"/>
</g>
<defs>
<clipPath id="clip0_339_4049">
<rect width="26.25" height="30" fill="white" transform="translate(15 13)"/>
</clipPath>
</defs>
</svg>
