<svg width="56" height="56" viewBox="0 0 56 56" fill="none" xmlns="http://www.w3.org/2000/svg">
<path d="M0 28C0 12.536 12.536 0 28 0C43.464 0 56 12.536 56 28C56 43.464 43.464 56 28 56C12.536 56 0 43.464 0 28Z" fill="#E0F2FE"/>
<path d="M28.1594 19.9937L23.6219 23.6688C22.8672 24.2781 22.7219 25.375 23.2938 26.1578C23.8984 26.9922 25.075 27.1563 25.8859 26.5234L30.5406 22.9047C30.8688 22.6516 31.3375 22.7078 31.5953 23.0359C31.8531 23.3641 31.7922 23.8328 31.4641 24.0906L30.4844 24.85L37 30.85V22H36.9672L36.7844 21.8828L33.3812 19.7031C32.6641 19.2438 31.825 19 30.9719 19C29.95 19 28.9562 19.3516 28.1594 19.9937ZM29.2281 25.825L26.8047 27.7094C25.3281 28.8625 23.1859 28.5625 22.0797 27.0438C21.0391 25.6141 21.3016 23.6172 22.675 22.5063L26.575 19.3516C26.0312 19.1219 25.4453 19.0047 24.85 19.0047C23.9688 19 23.1109 19.2625 22.375 19.75L19 22V32.5H20.3219L24.6063 36.4094C25.525 37.2484 26.9453 37.1828 27.7844 36.2641C28.0422 35.9781 28.2156 35.6453 28.3047 35.2984L29.1016 36.0297C30.0156 36.8688 31.4406 36.8078 32.2797 35.8938C32.4906 35.6641 32.6453 35.3969 32.7438 35.1203C33.6531 35.7297 34.8906 35.6031 35.6547 34.7688C36.4937 33.8547 36.4328 32.4297 35.5187 31.5906L29.2281 25.825ZM13.75 22C13.3375 22 13 22.3375 13 22.75V32.5C13 33.3297 13.6703 34 14.5 34H16C16.8297 34 17.5 33.3297 17.5 32.5V22H13.75ZM15.25 31C15.4489 31 15.6397 31.079 15.7803 31.2197C15.921 31.3603 16 31.5511 16 31.75C16 31.9489 15.921 32.1397 15.7803 32.2803C15.6397 32.421 15.4489 32.5 15.25 32.5C15.0511 32.5 14.8603 32.421 14.7197 32.2803C14.579 32.1397 14.5 31.9489 14.5 31.75C14.5 31.5511 14.579 31.3603 14.7197 31.2197C14.8603 31.079 15.0511 31 15.25 31ZM38.5 22V32.5C38.5 33.3297 39.1703 34 40 34H41.5C42.3297 34 43 33.3297 43 32.5V22.75C43 22.3375 42.6625 22 42.25 22H38.5ZM40 31.75C40 31.5511 40.079 31.3603 40.2197 31.2197C40.3603 31.079 40.5511 31 40.75 31C40.9489 31 41.1397 31.079 41.2803 31.2197C41.421 31.3603 41.5 31.5511 41.5 31.75C41.5 31.9489 41.421 32.1397 41.2803 32.2803C41.1397 32.421 40.9489 32.5 40.75 32.5C40.5511 32.5 40.3603 32.421 40.2197 32.2803C40.079 32.1397 40 31.9489 40 31.75Z" fill="#0369A1"/>
</svg>
