<svg width="16" height="16" viewBox="0 0 16 16" fill="none" xmlns="http://www.w3.org/2000/svg">
<path d="M5.5 2.75V4H10.5V2.75C10.5 2.6125 10.3875 2.5 10.25 2.5H5.75C5.6125 2.5 5.5 2.6125 5.5 2.75ZM4 4V2.75C4 1.78438 4.78438 1 5.75 1H10.25C11.2156 1 12 1.78438 12 2.75V4H12.8781C13.275 4 13.6562 4.15938 13.9375 4.44063L15.5594 6.0625C15.8406 6.34375 16 6.725 16 7.12187V9.5H12V9C12 8.44688 11.5531 8 11 8C10.4469 8 10 8.44688 10 9V9.5H6V9C6 8.44688 5.55312 8 5 8C4.44688 8 4 8.44688 4 9V9.5H0V7.12187C0 6.725 0.159375 6.34375 0.440625 6.0625L2.0625 4.44063C2.34375 4.15938 2.725 4 3.12188 4H4ZM0 13V10.5H4V11C4 11.5531 4.44688 12 5 12C5.55312 12 6 11.5531 6 11V10.5H10V11C10 11.5531 10.4469 12 11 12C11.5531 12 12 11.5531 12 11V10.5H16V13C16 14.1031 15.1031 15 14 15H2C0.896875 15 0 14.1031 0 13Z" fill="#0369A1"/>
</svg>
