<svg width="56" height="56" viewBox="0 0 56 56" fill="none" xmlns="http://www.w3.org/2000/svg">
<path d="M0 28C0 12.536 12.536 0 28 0C43.464 0 56 12.536 56 28C56 43.464 43.464 56 28 56C12.536 56 0 43.464 0 28Z" fill="#E0F2FE"/>
<g clip-path="url(#clip0_285_3802)">
<path d="M34.3781 18.0906C34.6547 17.4484 34.4484 16.6984 33.8812 16.2859C33.3141 15.8734 32.5406 15.9109 32.0109 16.3702L20.0109 26.8702C19.5422 27.2827 19.3734 27.9437 19.5937 28.5249C19.8141 29.1062 20.3766 29.4999 21 29.4999H26.2266L22.6219 37.9093C22.3453 38.5515 22.5516 39.3015 23.1187 39.714C23.6859 40.1265 24.4594 40.089 24.9891 39.6296L36.9891 29.1296C37.4578 28.7171 37.6266 28.0562 37.4062 27.4749C37.1859 26.8937 36.6281 26.5046 36 26.5046H30.7734L34.3781 18.0906Z" fill="#0369A1"/>
</g>
<defs>
<clipPath id="clip0_285_3802">
<rect width="21" height="24" fill="white" transform="translate(18 16)"/>
</clipPath>
</defs>
</svg>
