<svg width="56" height="56" viewBox="0 0 56 56" fill="none" xmlns="http://www.w3.org/2000/svg">
<path d="M0 28C0 12.536 12.536 0 28 0C43.464 0 56 12.536 56 28C56 43.464 43.464 56 28 56C12.536 56 0 43.464 0 28Z" fill="#E0F2FE"/>
<g clip-path="url(#clip0_285_3820)">
<path fill-rule="evenodd" clip-rule="evenodd" d="M33.7017 16.48C33.7913 16.3361 33.9215 16.2221 34.0759 16.1522C34.2303 16.0823 34.4019 16.0598 34.5691 16.0874L38.9765 16.8228C39.2006 16.8602 39.4007 16.985 39.5328 17.1699C39.6649 17.3547 39.7183 17.5844 39.6811 17.8086L38.9474 22.2177C38.9194 22.3848 38.8425 22.5399 38.7264 22.6634C38.6102 22.7868 38.4601 22.873 38.295 22.9112C38.1299 22.9494 37.9572 22.9377 37.7987 22.8778C37.6402 22.8178 37.503 22.7122 37.4045 22.5743L36.2148 20.9114L30.088 24.8268C29.8267 24.994 29.5138 25.0611 29.2069 25.0158C28.9001 24.9704 28.62 24.8156 28.4182 24.58L25.0017 20.5857L18.6125 23.8686C18.3093 24.0245 17.9565 24.0536 17.6318 23.9494C17.3071 23.8453 17.037 23.6164 16.8811 23.3131C16.7252 23.0099 16.6961 22.6571 16.8002 22.3324C16.9044 22.0077 17.1333 21.7376 17.4365 21.5817L24.7308 17.8326C24.9883 17.7003 25.283 17.6587 25.567 17.7147C25.8511 17.7707 26.1079 17.921 26.296 18.1411L29.6457 22.0583L34.72 18.8148L33.7308 17.4314C33.6325 17.2935 33.5772 17.1295 33.572 16.9601C33.5668 16.7908 33.612 16.6237 33.7017 16.48ZM22.48 24.8971L17.5051 27.7428C17.3086 27.8551 17.1452 28.0173 17.0314 28.2129C16.9176 28.4086 16.8575 28.6308 16.8571 28.8571V38.7143C16.8571 39.424 17.4331 40 18.1428 40H22.48V24.8971ZM24.6228 40H30.9108V28.3223L28.084 29.7348L25.2588 24.7908C25.1158 24.5397 24.8924 24.344 24.6245 24.2354L24.6228 40ZM37.8571 40H33.0537V27.2508L37.2828 25.1354C37.4788 25.0376 37.6966 24.9914 37.9155 25.0014C38.1343 25.0113 38.347 25.077 38.5334 25.1922C38.7197 25.3075 38.8735 25.4684 38.9802 25.6598C39.0868 25.8512 39.1428 26.0666 39.1428 26.2857V38.7143C39.1428 39.0553 39.0074 39.3823 38.7662 39.6234C38.5251 39.8645 38.1981 40 37.8571 40Z" fill="#0369A1"/>
</g>
<defs>
<clipPath id="clip0_285_3820">
<rect width="24" height="24" fill="white" transform="translate(16 16)"/>
</clipPath>
</defs>
</svg>
