<svg width="56" height="56" viewBox="0 0 56 56" fill="none" xmlns="http://www.w3.org/2000/svg">
<path d="M0 28C0 12.536 12.536 0 28 0C43.464 0 56 12.536 56 28C56 43.464 43.464 56 28 56C12.536 56 0 43.464 0 28Z" fill="#E0F2FE"/>
<path d="M27.9998 42.1666C24.7179 41.3402 22.0083 39.457 19.871 36.5169C17.7337 33.5769 16.6656 30.3129 16.6665 26.7249V18.0833L27.9998 13.8333L39.3332 18.0833V26.7249C39.3332 30.3138 38.265 33.5783 36.1287 36.5183C33.9923 39.4584 31.2827 41.3411 27.9998 42.1666ZM27.9998 39.1916C30.2901 38.4833 32.2026 37.0841 33.7373 34.994C35.2721 32.9039 36.1693 30.5726 36.429 27.9999H27.9998V16.8437L19.4998 20.0312V27.3624C19.4998 27.5277 19.5234 27.7402 19.5707 27.9999H27.9998V39.1916Z" fill="#0369A1"/>
</svg>
